<svg width="25" height="25" viewBox="0 0 25 25" fill="none" xmlns="http://www.w3.org/2000/svg">
<path fill-rule="evenodd" clip-rule="evenodd" d="M23.5312 1.99099C23.819 1.69301 23.8106 1.21821 23.5126 0.930496C23.2147 0.642786 22.7398 0.651116 22.4521 0.949102L12.5103 11.2461L2.56836 0.949102C2.28065 0.651116 1.80585 0.642786 1.50786 0.930497C1.20988 1.21821 1.20155 1.69301 1.48926 1.99099L11.4677 12.3258L0.879883 23.2918C0.592173 23.5898 0.600503 24.0646 0.898489 24.3523C1.19647 24.64 1.67128 24.6317 1.95899 24.3337L12.5103 13.4056L23.0615 24.3336C23.3492 24.6316 23.824 24.6399 24.122 24.3522C24.42 24.0645 24.4283 23.5897 24.1406 23.2917L13.5528 12.3258L23.5312 1.99099Z" fill="black"/>
</svg>
