<svg width="26" height="25" viewBox="0 0 26 25" fill="none" xmlns="http://www.w3.org/2000/svg">
<g clip-path="url(#clip0_3_106)">
<path fill-rule="evenodd" clip-rule="evenodd" d="M19.9583 11.1159C19.9583 16.4771 15.7766 20.7318 10.7291 20.7318C5.68165 20.7318 1.5 16.4771 1.5 11.1159C1.5 5.75467 5.68165 1.5 10.7291 1.5C15.7766 1.5 19.9583 5.75467 19.9583 11.1159ZM18.3157 18.9761C16.3741 20.9876 13.6919 22.2318 10.7291 22.2318C4.8036 22.2318 0 17.255 0 11.1159C0 4.97676 4.8036 0 10.7291 0C16.6547 0 21.4583 4.97676 21.4583 11.1159C21.4583 13.6351 20.6494 15.9586 19.286 17.8228L24.9052 23.6445C25.1928 23.9426 25.1928 24.4258 24.9052 24.7238C24.6175 25.0218 24.1511 25.0218 23.8635 24.7238L18.3157 18.9761Z" fill="black"/>
</g>
<defs>
<clipPath id="clip0_3_106">
<rect width="26" height="25" fill="white"/>
</clipPath>
</defs>
</svg>
