<svg width="23" height="27" viewBox="0 0 23 27" fill="none" xmlns="http://www.w3.org/2000/svg">
<g clip-path="url(#clip0_3_101)">
<path fill-rule="evenodd" clip-rule="evenodd" d="M10.703 2.5901C11.429 2.30326 12.237 2.30326 12.9631 2.5901C13.4556 2.78469 13.8896 3.10318 14.2229 3.51471L14.3877 3.71806C14.975 4.44312 15.2954 5.34789 15.2954 6.28097V7.5212H8.3706V6.28097C8.3706 5.34789 8.69106 4.44312 9.27836 3.71806L9.44308 3.51471C9.77642 3.10318 10.2104 2.78469 10.703 2.5901ZM6.8706 7.5212V6.28097C6.8706 5.00416 7.30912 3.76609 8.11277 2.77393L8.27748 2.57058C8.77341 1.95833 9.41902 1.48452 10.1518 1.19502C11.232 0.768286 12.434 0.768286 13.5142 1.19502C14.247 1.48452 14.8926 1.95833 15.3885 2.57058L15.5532 2.77393C16.3569 3.76609 16.7954 5.00416 16.7954 6.28097V7.5212H17.1923C19.056 7.5212 20.6369 8.88987 20.9037 10.7344L22.7682 23.6249C22.8676 24.3123 22.6347 25.006 22.1405 25.494C21.7312 25.8983 21.179 26.125 20.6037 26.125H3.06192C2.48659 26.125 1.93444 25.8983 1.5251 25.494C1.03097 25.006 0.798004 24.3123 0.897426 23.6249L2.76196 10.7344C3.02875 8.88987 4.60964 7.5212 6.47334 7.5212H6.8706ZM4.24651 10.9491C4.40659 9.8424 5.35512 9.0212 6.47334 9.0212H17.1923C18.3105 9.0212 19.259 9.8424 19.4191 10.9491L21.2837 23.8396C21.3149 24.0556 21.2417 24.2735 21.0865 24.4268C20.9579 24.5538 20.7844 24.625 20.6037 24.625H3.06192C2.88119 24.625 2.70774 24.5538 2.57915 24.4268C2.42393 24.2735 2.35075 24.0556 2.38198 23.8396L4.24651 10.9491Z" fill="black"/>
</g>
<defs>
<clipPath id="clip0_3_101">
<rect width="23" height="27" fill="white"/>
</clipPath>
</defs>
</svg>
