<svg width="21" height="25" viewBox="0 0 21 25" fill="none" xmlns="http://www.w3.org/2000/svg">
<path fill-rule="evenodd" clip-rule="evenodd" d="M9.7723 2.39826C10.4352 2.13267 11.1729 2.13267 11.8359 2.39826C12.2855 2.57844 12.6818 2.87334 12.9861 3.25438L13.1366 3.44267C13.6728 4.11402 13.9654 4.95177 13.9654 5.81574V6.9641H7.64272V5.81574C7.64272 4.95177 7.93532 4.11402 8.47155 3.44267L8.62194 3.25438C8.9263 2.87334 9.32254 2.57844 9.7723 2.39826ZM6.27316 6.9641V5.81574C6.27316 4.63351 6.67354 3.48714 7.40731 2.56848L7.5577 2.38019C8.0105 1.81329 8.59998 1.37458 9.26904 1.10652C10.2553 0.7114 11.3528 0.7114 12.3391 1.10652C13.0081 1.37458 13.5976 1.81329 14.0504 2.38019L14.2007 2.56848C14.9346 3.48714 15.3349 4.63351 15.3349 5.81574V6.9641H15.6973C17.399 6.9641 18.8424 8.23138 19.086 9.93928L20.7884 21.8749C20.8791 22.5114 20.6665 23.1537 20.2152 23.6056C19.8415 23.9799 19.3373 24.1898 18.8121 24.1898H2.79567C2.27036 24.1898 1.76623 23.9799 1.39248 23.6056C0.94132 23.1537 0.728612 22.5114 0.819389 21.8749L2.52179 9.93928C2.76538 8.23138 4.2088 6.9641 5.91044 6.9641H6.27316ZM3.87725 10.1381C4.02341 9.11336 4.88946 8.35299 5.91044 8.35299H15.6973C16.7183 8.35299 17.5843 9.11336 17.7305 10.1381L19.4329 22.0737C19.4614 22.2737 19.3946 22.4755 19.2529 22.6174C19.1355 22.735 18.9771 22.8009 18.8121 22.8009H2.79567C2.63065 22.8009 2.47228 22.735 2.35488 22.6174C2.21315 22.4755 2.14634 22.2737 2.17485 22.0737L3.87725 10.1381Z" fill="white"/>
</svg>
